<?xml version="1.0" encoding="UTF-8" standalone="no"?>
<!DOCTYPE svg PUBLIC "-//W3C//DTD SVG 1.1//EN"
 "http://www.w3.org/Graphics/SVG/1.1/DTD/svg11.dtd">
<!-- Generated by graphviz version 8.1.0 (20230707.0739)
 -->
<!-- Title: G Pages: 1 -->
<svg width="533pt" height="107pt"
 viewBox="0.00 0.00 532.75 106.61" xmlns="http://www.w3.org/2000/svg" xmlns:xlink="http://www.w3.org/1999/xlink">
<g id="graph0" class="graph" transform="scale(1 1) rotate(0) translate(4 102.61)">
<title>G</title>
<polygon fill="white" stroke="none" points="-4,4 -4,-102.61 528.75,-102.61 528.75,4 -4,4"/>
<!-- 0 -->
<g id="node1" class="node">
<title>0</title>
<ellipse fill="none" stroke="black" cx="140.3" cy="-49.3" rx="49.3" ry="49.3"/>
<text text-anchor="middle" x="140.3" y="-44.25" font-family="Times,serif" font-size="14.00">{x0 &lt; 15}</text>
</g>
<!-- 1 -->
<g id="node2" class="node">
<title>1</title>
<ellipse fill="none" stroke="black" cx="357.31" cy="-49.3" rx="44.7" ry="44.7"/>
<text text-anchor="middle" x="357.31" y="-44.25" font-family="Times,serif" font-size="14.00">{x0 &gt; 5}</text>
</g>
<!-- 0&#45;&gt;1 -->
<g id="edge1" class="edge">
<title>0&#45;&gt;1</title>
<path fill="none" stroke="black" d="M190.09,-49.3C223.3,-49.3 267.28,-49.3 301.66,-49.3"/>
<polygon fill="black" stroke="black" points="301.46,-52.8 311.46,-49.3 301.46,-45.8 301.46,-52.8"/>
<text text-anchor="middle" x="251.11" y="-52.5" font-family="Times,serif" font-size="14.00">x0 &lt; 5 / x0 := 0</text>
</g>
<!-- 2 -->
<g id="node3" class="node">
<title>2</title>
<ellipse fill="none" stroke="black" cx="502.75" cy="-49.3" rx="18" ry="18"/>
<ellipse fill="none" stroke="black" cx="502.75" cy="-49.3" rx="22" ry="22"/>
<text text-anchor="middle" x="502.75" y="-42.75" font-family="Times,serif" font-size="14.00">⟙</text>
</g>
<!-- 1&#45;&gt;2 -->
<g id="edge2" class="edge">
<title>1&#45;&gt;2</title>
<path fill="none" stroke="black" d="M402.12,-49.3C423.89,-49.3 449.72,-49.3 469.62,-49.3"/>
<polygon fill="black" stroke="black" points="469.58,-52.8 479.58,-49.3 469.58,-45.8 469.58,-52.8"/>
<text text-anchor="middle" x="441.38" y="-52.5" font-family="Times,serif" font-size="14.00">x0 &lt; 10</text>
</g>
<!-- dummy0 -->
<g id="node4" class="node">
<title>dummy0</title>
</g>
<!-- dummy0&#45;&gt;0 -->
<g id="edge3" class="edge">
<title>dummy0&#45;&gt;0</title>
<path fill="none" stroke="black" d="M53.82,-49.3C61.75,-49.3 70.84,-49.3 80.06,-49.3"/>
<polygon fill="black" stroke="black" points="79.89,-52.8 89.89,-49.3 79.89,-45.8 79.89,-52.8"/>
</g>
</g>
</svg>
